<svg width="100" height="79" viewBox="0 0 100 79" fill="none" xmlns="http://www.w3.org/2000/svg">
<path fill-rule="evenodd" clip-rule="evenodd" d="M80.8945 17.3322C84.5745 15.2878 89.114 17.9246 89.114 22.1066V60.0483C89.114 62.5565 87.063 64.5897 84.5331 64.5897C82.0031 64.5897 79.9521 62.5565 79.9521 60.0484V57.1117C79.9521 52.9381 75.429 50.3004 71.7493 52.3281L48.0033 65.4141C45.7884 66.6346 42.9948 65.8426 41.7658 63.6456C40.5386 61.4517 41.3361 58.6871 43.5478 57.4682L77.8894 38.5419C79.1626 37.8402 79.9521 36.5096 79.9521 35.0654C79.9521 32.0261 76.653 30.1097 73.9785 31.5956L19.1055 62.0807C15.4256 64.1251 10.8861 61.4883 10.8861 57.3064V22.1012C10.8861 17.9264 15.4116 15.2888 19.0913 17.3189L47.4183 32.9473C49.0926 33.871 51.1302 33.868 52.8017 32.9394L80.8945 17.3322ZM32.0926 44.4445C35.8613 42.3508 35.8533 36.9707 32.0784 34.888L28.2531 32.7775C24.5734 30.7474 20.0479 33.385 20.0479 37.5597V41.7954C20.0479 45.9773 24.5874 48.6141 28.2673 46.5697L32.0926 44.4445Z" fill="url(#paint0_linear_801_5)"/>
<g filter="url(#filter0_i_801_5)">
<path fill-rule="evenodd" clip-rule="evenodd" d="M80.8945 17.3322C84.5745 15.2878 89.114 17.9246 89.114 22.1066V60.0483C89.114 62.5565 87.063 64.5897 84.5331 64.5897C82.0031 64.5897 79.9521 62.5565 79.9521 60.0484V57.1117C79.9521 52.9381 75.429 50.3004 71.7493 52.3281L48.0033 65.4141C45.7884 66.6346 42.9948 65.8426 41.7658 63.6456C40.5386 61.4517 41.3361 58.6871 43.5478 57.4682L77.8894 38.5419C79.1626 37.8402 79.9521 36.5096 79.9521 35.0654C79.9521 32.0261 76.653 30.1097 73.9785 31.5956L19.1055 62.0807C15.4256 64.1251 10.8861 61.4883 10.8861 57.3064V22.1012C10.8861 17.9264 15.4116 15.2888 19.0913 17.3189L47.4183 32.9473C49.0926 33.871 51.1302 33.868 52.8017 32.9394L80.8945 17.3322ZM32.0926 44.4445C35.8613 42.3508 35.8533 36.9707 32.0784 34.888L28.2531 32.7775C24.5734 30.7474 20.0479 33.385 20.0479 37.5597V41.7954C20.0479 45.9773 24.5874 48.6141 28.2673 46.5697L32.0926 44.4445Z" fill="white" fill-opacity="0.25"/>
</g>
<defs>
<filter id="filter0_i_801_5" x="10.8861" y="16.6204" width="78.2278" height="52.3672" filterUnits="userSpaceOnUse" color-interpolation-filters="sRGB">
<feFlood flood-opacity="0" result="BackgroundImageFix"/>
<feBlend mode="normal" in="SourceGraphic" in2="BackgroundImageFix" result="shape"/>
<feColorMatrix in="SourceAlpha" type="matrix" values="0 0 0 0 0 0 0 0 0 0 0 0 0 0 0 0 0 0 127 0" result="hardAlpha"/>
<feOffset dy="3"/>
<feGaussianBlur stdDeviation="4"/>
<feComposite in2="hardAlpha" operator="arithmetic" k2="-1" k3="1"/>
<feColorMatrix type="matrix" values="0 0 0 0 0 0 0 0 0 0 0 0 0 0 0 0 0 0 0.2 0"/>
<feBlend mode="normal" in2="shape" result="effect1_innerShadow_801_5"/>
</filter>
<linearGradient id="paint0_linear_801_5" x1="43.4178" y1="-1.4809" x2="89.114" y2="73.4558" gradientUnits="userSpaceOnUse">
<stop stop-color="#00BF8F"/>
<stop offset="1" stop-color="#001AFF"/>
</linearGradient>
</defs>
</svg>
